<svg width="20px" height="20px" viewBox="0 0 20 20" version="1.1" xmlns="http://www.w3.org/2000/svg" xmlns:xlink="http://www.w3.org/1999/xlink">
    <g id="close" stroke="none" stroke-width="1" fill="none" fill-rule="evenodd">
        <path d="M12.7170716,9.90872897 L18.9415025,16.1331599 C19.7225511,16.9142085 19.7225511,18.1805384 18.9415025,18.961587 C18.1604539,19.7426356 16.894124,19.7426356 16.1130754,18.961587 L9.88864448,12.7371561 L3.66421356,18.961587 C2.88316498,19.7426356 1.61683502,19.7426356 0.835786438,18.961587 C0.0547378541,18.1805384 0.0547378541,16.9142085 0.835786438,16.1331599 L7.06021736,9.90872897 L1.01288391,3.86139553 C0.231835329,3.08034695 0.231835329,1.81401699 1.01288391,1.0329684 C1.7939325,0.25191982 3.06026245,0.25191982 3.84131104,1.0329684 L9.88864448,7.08030185 L15.9359779,1.0329684 C16.7170265,0.25191982 17.9833565,0.25191982 18.764405,1.0329684 C19.5454536,1.81401699 19.5454536,3.08034695 18.764405,3.86139553 L12.7170716,9.90872897 Z" id="Path" fill="#46413E" fill-rule="nonzero"></path>
    </g>
</svg>